<svg width="512" height="508" viewBox="0 0 512 508" fill="none" xmlns="http://www.w3.org/2000/svg">
<path d="M146.858 388.654H451.109L479.051 230.428H118.916L146.858 388.654Z" fill="#F4B2B0"/>
<path d="M508.441 120.223C505.55 116.777 501.282 114.787 496.784 114.787H426.286C417.882 114.787 411.071 121.599 411.071 130.002C411.071 138.405 417.883 145.217 426.286 145.217H478.647L466.286 215.213H131.681L119.32 145.217H342.094C350.498 145.217 357.309 138.405 357.309 130.002C357.309 121.599 350.497 114.787 342.094 114.787H113.481L94.327 13.065C92.973 5.874 86.692 0.666 79.374 0.666H15.215C6.812 0.666 0 7.478 0 15.881C0 24.284 6.812 31.096 15.215 31.096H66.756L131.874 391.301C133.158 398.571 139.476 403.87 146.858 403.87H213.801C233.936 403.87 250.318 420.252 250.318 440.387C250.318 460.522 233.936 476.904 213.801 476.904C193.666 476.904 177.284 460.522 177.284 440.387C177.284 431.983 170.472 425.172 162.069 425.172C153.666 425.172 146.854 431.984 146.854 440.387C146.854 477.303 176.886 507.335 213.802 507.335C250.718 507.335 280.75 477.303 280.75 440.387C280.75 426.921 276.739 414.381 269.871 403.87H384.662C404.797 403.87 421.179 420.252 421.179 440.387C421.179 460.522 404.797 476.904 384.662 476.904C364.527 476.904 348.145 460.522 348.145 440.387C348.145 431.983 341.333 425.172 332.93 425.172C324.527 425.172 317.715 431.984 317.715 440.387C317.715 477.303 347.747 507.335 384.663 507.335C421.579 507.335 451.611 477.303 451.611 440.387C451.611 426.921 447.6 414.381 440.732 403.87H451.112C458.495 403.87 464.812 398.57 466.096 391.301L494.038 233.074L511.772 132.647C512.551 128.218 511.332 123.669 508.441 120.223ZM438.345 373.44H159.622L137.054 245.644H460.913L438.345 373.44Z" fill="#B3404A"/>
</svg>
